<svg width="490" height="90" viewBox="0 0 490 90" fill="none" xmlns="http://www.w3.org/2000/svg">
<path d="M132.334 59.8189C128.753 59.8189 125.372 59.1751 122.193 57.8873C119.014 56.5996 116.338 54.668 114.165 52.0926C111.992 49.5171 110.604 46.3984 110 42.7364L120.382 40.0805C120.744 43.5412 122.032 46.1569 124.245 47.9276C126.459 49.6982 129.195 50.5835 132.455 50.5835C134.467 50.5835 136.197 50.2616 137.646 49.6177C139.135 48.9738 140.241 48.0885 140.966 46.9618C141.73 45.7948 142.113 44.5272 142.113 43.159C142.113 41.4688 141.59 40.0402 140.543 38.8732C139.497 37.666 138.209 36.6801 136.68 35.9155C135.151 35.1509 133.038 34.2254 130.342 33.1388C126.801 31.7304 123.944 30.4427 121.771 29.2757C119.598 28.0684 117.746 26.3984 116.217 24.2656C114.648 22.0926 113.863 19.3763 113.863 16.1167C113.863 12.7767 114.688 9.8994 116.338 7.48491C117.948 5.03018 120.141 3.17907 122.918 1.93159C125.694 0.643863 128.732 0 132.032 0C135.775 0 139.195 0.845071 142.294 2.53521C145.392 4.22535 147.887 6.80081 149.779 10.2616L141.087 15.5734C140.08 13.6016 138.753 12.0724 137.103 10.9859C135.453 9.8994 133.642 9.35614 131.67 9.35614C130.302 9.35614 129.054 9.61771 127.928 10.1408C126.841 10.664 125.976 11.3883 125.332 12.3139C124.688 13.2797 124.366 14.3662 124.366 15.5734C124.366 17.0624 124.849 18.33 125.815 19.3763C126.781 20.4225 127.988 21.3078 129.437 22.0322C130.926 22.7163 132.938 23.5614 135.473 24.5674C139.095 25.9759 142.052 27.3038 144.346 28.5513C146.6 29.7586 148.531 31.4889 150.141 33.7425C151.751 35.9557 152.555 38.7726 152.555 42.1932C152.555 45.7746 151.65 48.8934 149.839 51.5493C148.068 54.2052 145.634 56.2575 142.535 57.7062C139.477 59.1147 136.076 59.8189 132.334 59.8189ZM177.968 60C173.823 60 170.141 59.0342 166.922 57.1026C163.702 55.171 161.207 52.5553 159.437 49.2555C157.706 45.9557 156.841 42.3541 156.841 38.4507C156.841 34.5875 157.706 31.0262 159.437 27.7666C161.207 24.507 163.702 21.9115 166.922 19.9799C170.141 18.0483 173.823 17.0825 177.968 17.0825C182.072 17.0825 185.734 18.0483 188.954 19.9799C192.173 21.9115 194.668 24.507 196.439 27.7666C198.209 31.0262 199.095 34.5875 199.095 38.4507C199.095 42.3541 198.209 45.9557 196.439 49.2555C194.668 52.5553 192.173 55.171 188.954 57.1026C185.734 59.0342 182.072 60 177.968 60ZM177.968 51.3682C180.382 51.3682 182.374 50.7847 183.944 49.6177C185.553 48.4507 186.74 46.8813 187.505 44.9095C188.229 42.9779 188.592 40.825 188.592 38.4507C188.592 34.7887 187.726 31.7706 185.996 29.3964C184.225 27.0221 181.549 25.835 177.968 25.835C175.513 25.835 173.501 26.3984 171.932 27.5252C170.322 28.6519 169.155 30.161 168.431 32.0523C167.666 33.9839 167.284 36.1167 167.284 38.4507C167.284 40.825 167.666 42.9779 168.431 44.9095C169.155 46.8813 170.322 48.4507 171.932 49.6177C173.501 50.7847 175.513 51.3682 177.968 51.3682ZM215.634 60C212.938 60 210.825 59.336 209.296 58.008C207.767 56.6801 207.002 54.3461 207.002 51.006V0.905433H217.083V48.2294C217.083 50.0805 218.169 51.006 220.342 51.006C221.147 51.006 222.072 50.9054 223.119 50.7042V59.2153C220.302 59.7384 217.807 60 215.634 60ZM241.891 60C239.074 60 236.519 59.4769 234.225 58.4306C231.972 57.3843 230.201 55.835 228.913 53.7827C227.586 51.7304 226.922 49.3159 226.922 46.5392C226.922 42.3139 228.41 39.2757 231.388 37.4245C234.326 35.5332 238.31 34.5875 243.34 34.5875H254.085C254.085 31.9316 253.38 29.8189 251.972 28.2495C250.563 26.6801 248.551 25.8954 245.936 25.8954C243.763 25.8954 241.851 26.4386 240.201 27.5252C238.551 28.6117 237.243 30 236.278 31.6901L228.551 26.1368C230.644 23.2394 233.099 21.006 235.916 19.4366C238.692 17.8672 242.012 17.0825 245.875 17.0825C249.537 17.0825 252.716 17.8068 255.412 19.2555C258.109 20.664 260.161 22.6761 261.569 25.2917C262.978 27.8672 263.682 30.825 263.682 34.165V59.2153H255.412L254.749 53.2998C253.058 55.7545 251.147 57.4849 249.014 58.4909C246.922 59.497 244.547 60 241.891 60ZM243.34 51.4889C245.231 51.4889 246.982 51.0463 248.592 50.161C250.201 49.2757 251.509 48.0885 252.515 46.5996C253.521 45.1509 254.044 43.5614 254.085 41.831H243.944C241.771 41.831 240.101 42.3139 238.934 43.2797C237.807 44.2455 237.243 45.4326 237.243 46.8411C237.243 48.2495 237.787 49.3763 238.873 50.2213C239.92 51.0664 241.408 51.4889 243.34 51.4889ZM274.427 59.2153V17.9879H284.266V24.8692C285.111 22.4547 286.559 20.5634 288.612 19.1952C290.664 17.7867 292.897 17.0825 295.312 17.0825C296.72 17.0825 298.089 17.3441 299.417 17.8672C300.744 18.3501 301.891 19.0946 302.857 20.1006L298.27 28.3099C296.861 27.3843 295.352 26.9215 293.742 26.9215C292.093 26.9215 290.543 27.4447 289.095 28.4909C287.606 29.5775 286.419 31.2274 285.533 33.4406C284.608 35.6539 284.145 38.4306 284.145 41.7706V59.2153H274.427ZM308.048 10.1408V0.905433H318.551V10.1408H308.048ZM308.29 59.2153V17.9879H318.31V59.2153H308.29ZM342.696 60C339.879 60 337.284 59.497 334.909 58.4909C332.535 57.4447 330.523 56.0563 328.873 54.326C327.223 52.5553 326.056 50.6036 325.372 48.4708L333.4 44.9095C334.125 46.841 335.151 48.4507 336.479 49.7384C337.847 51.0262 339.738 51.67 342.153 51.67C343.642 51.67 344.889 51.4286 345.895 50.9457C346.861 50.4628 347.606 49.839 348.129 49.0745C348.612 48.3099 348.853 47.5453 348.853 46.7807C348.853 45.8954 348.531 45.171 347.887 44.6076C347.243 44.004 346.439 43.5412 345.473 43.2193C344.507 42.8571 343.119 42.4346 341.308 41.9517C338.571 41.2676 336.338 40.5433 334.608 39.7787C332.837 39.0543 331.328 37.8873 330.08 36.2777C328.793 34.7083 328.149 32.5956 328.149 29.9396C328.149 27.163 328.853 24.8089 330.262 22.8773C331.67 20.9457 333.521 19.497 335.815 18.5312C338.149 17.5654 340.704 17.0825 343.481 17.0825C346.942 17.0825 350.02 17.8672 352.716 19.4366C355.372 21.006 357.505 23.2193 359.115 26.0765L351.268 30.3018C350.423 28.7726 349.356 27.505 348.068 26.499C346.821 25.5332 345.171 25.0503 343.119 25.0503C341.509 25.0503 340.221 25.3924 339.256 26.0765C338.29 26.7606 337.807 27.6056 337.807 28.6117C337.807 29.3763 338.109 30.0201 338.712 30.5433C339.316 31.0664 340.081 31.4889 341.006 31.8109C341.932 32.173 343.219 32.5956 344.869 33.0785C347.726 33.8833 350.08 34.7082 351.932 35.5533C353.742 36.3581 355.332 37.6258 356.7 39.3561C358.068 41.0865 358.753 43.4004 358.753 46.2978C358.753 49.3159 357.988 51.8511 356.459 53.9034C354.93 55.9557 352.938 57.4849 350.483 58.4909C348.028 59.497 345.433 60 342.696 60ZM369.256 59.2153V0.905433H389.477C392.696 0.905433 395.714 1.42857 398.531 2.47485C401.388 3.52113 403.702 5.21127 405.473 7.54527C407.243 9.87928 408.129 12.8974 408.129 16.5996C408.129 19.0946 407.505 21.3883 406.258 23.4809C405.01 25.5332 403.481 27.0423 401.67 28.0081C403.4 28.6922 404.99 29.7787 406.439 31.2676C407.847 32.7968 408.974 34.5272 409.819 36.4588C410.624 38.3903 411.026 40.3219 411.026 42.2535C411.026 45.7545 410.161 48.7928 408.431 51.3682C406.66 53.9034 404.326 55.835 401.429 57.163C398.531 58.5312 395.392 59.2153 392.012 59.2153H369.256ZM379.759 24.3863H390.503C392.877 24.3863 394.809 23.8431 396.298 22.7565C397.787 21.67 398.531 19.8189 398.531 17.2032C398.531 14.9899 397.706 13.2998 396.056 12.1328C394.406 10.9256 392.274 10.3219 389.658 10.3219H379.759V24.3863ZM379.759 49.1952H392.193C394.93 49.1952 397.042 48.5312 398.531 47.2032C399.98 45.835 400.704 43.8028 400.704 41.1066C400.704 39.6982 400.342 38.4105 399.618 37.2435C398.853 36.0765 397.807 35.1509 396.479 34.4668C395.111 33.7425 393.541 33.3803 391.771 33.3803H379.759V49.1952ZM438.008 60C433.863 60 430.181 59.0342 426.962 57.1026C423.742 55.171 421.248 52.5553 419.477 49.2555C417.747 45.9557 416.881 42.3541 416.881 38.4507C416.881 34.5875 417.747 31.0262 419.477 27.7666C421.248 24.507 423.742 21.9115 426.962 19.9799C430.181 18.0483 433.863 17.0825 438.008 17.0825C442.113 17.0825 445.775 18.0483 448.994 19.9799C452.213 21.9115 454.708 24.507 456.479 27.7666C458.25 31.0262 459.135 34.5875 459.135 38.4507C459.135 42.3541 458.25 45.9557 456.479 49.2555C454.708 52.5553 452.213 55.171 448.994 57.1026C445.775 59.0342 442.113 60 438.008 60ZM438.008 51.3682C440.423 51.3682 442.414 50.7847 443.984 49.6177C445.594 48.4507 446.781 46.8813 447.545 44.9095C448.27 42.9779 448.632 40.825 448.632 38.4507C448.632 34.7887 447.767 31.7706 446.036 29.3964C444.266 27.0221 441.59 25.835 438.008 25.835C435.553 25.835 433.541 26.3984 431.972 27.5252C430.362 28.6519 429.195 30.161 428.471 32.0523C427.706 33.9839 427.324 36.1167 427.324 38.4507C427.324 40.825 427.706 42.9779 428.471 44.9095C429.195 46.8813 430.362 48.4507 431.972 49.6177C433.541 50.7847 435.553 51.3682 438.008 51.3682ZM481.771 60C479.074 60 476.761 59.5171 474.829 58.5513C472.897 57.5453 471.408 56.1368 470.362 54.326C469.316 52.4749 468.793 50.3018 468.793 47.8068V26.3783H462.153V17.9879H468.974V7.72636L478.813 0.543261V17.9879H489.195V26.3783H478.813V45.996C478.813 47.8873 479.215 49.2153 480.02 49.9799C480.865 50.7445 482.012 51.1268 483.461 51.1268C484.427 51.1268 485.412 50.9859 486.419 50.7042C487.425 50.4225 488.35 50.0805 489.195 49.6781V58.7928C488.35 59.1147 487.223 59.3964 485.815 59.6378C484.447 59.8793 483.099 60 481.771 60Z" fill="url(#paint0_linear_118_1172)"/>
<path d="M45 2.8125C68.2622 2.8125 87.1875 21.7378 87.1875 45C87.1875 68.2622 68.2622 87.1875 45 87.1875C21.7378 87.1875 2.8125 68.2622 2.8125 45C2.8125 21.7378 21.7378 2.8125 45 2.8125ZM45 0C20.1459 0 0 20.1459 0 45C0 69.8541 20.1459 90 45 90C69.8541 90 90 69.8541 90 45C90 20.1459 69.8541 0 45 0Z" fill="url(#paint1_linear_118_1172)"/>
<path d="M45 19.814L70.1859 45L45 70.1859L19.814 45L45 19.814ZM45 15.8372L15.8372 45L45 74.1628L74.1628 45L45 15.8372Z" fill="url(#paint2_linear_118_1172)"/>
<path d="M44.9999 35.263L54.7368 44.9999L44.9999 54.7368L35.263 44.9999L44.9999 35.263ZM44.9999 31.2861L31.2861 44.9999L44.9999 58.7136L58.7136 44.9999L44.9999 31.2861Z" fill="url(#paint3_linear_118_1172)"/>
<path d="M110.315 74.0194C110.486 74.0194 110.629 73.8943 110.629 73.687C110.629 73.4654 110.486 73.3403 110.315 73.3403C110.143 73.3403 110 73.4654 110 73.687C110 73.8943 110.143 74.0194 110.315 74.0194ZM110.111 76.7536H110.536L110.515 74.6556H110.129L110.111 76.7536ZM114.932 75.8136H116.966V75.5562H115.232V74.1945H116.648V73.9372H115.232V72.7613H116.916V72.5111H114.932V75.8136ZM121.873 75.8779C122.123 75.8779 122.288 75.8029 122.495 75.7171L122.413 75.4919C122.223 75.5884 122.077 75.6313 121.927 75.6313C121.602 75.6313 121.423 75.4454 121.423 75.0451V72.1644H120.261V72.411H121.133V75.0201C121.133 75.6027 121.398 75.8779 121.873 75.8779ZM131.334 76.8393H131.627V76.0316L131.62 75.5205C131.856 75.7421 132.167 75.8779 132.392 75.8779C132.985 75.8779 133.507 75.3668 133.507 74.5019C133.507 73.7049 133.167 73.2009 132.495 73.2009C132.184 73.2009 131.856 73.376 131.62 73.6155H131.605L131.577 73.2617H131.334V76.8393ZM132.356 75.6277C132.177 75.6277 131.884 75.5205 131.627 75.2667V73.8943C131.909 73.5941 132.202 73.4511 132.435 73.4511C132.985 73.4511 133.207 73.8907 133.207 74.5019C133.207 75.1702 132.853 75.6277 132.356 75.6277ZM137.835 75.8779C138.471 75.8779 139.011 75.3883 139.011 74.5412C139.011 73.687 138.471 73.2009 137.835 73.2009C137.199 73.2009 136.659 73.687 136.659 74.5412C136.659 75.3883 137.199 75.8779 137.835 75.8779ZM137.835 75.6313C137.324 75.6313 136.96 75.1917 136.96 74.5412C136.96 73.8907 137.324 73.4439 137.835 73.4439C138.346 73.4439 138.711 73.8907 138.711 74.5412C138.711 75.1917 138.346 75.6313 137.835 75.6313ZM143.225 75.8779C143.539 75.8779 143.843 75.6706 144.051 75.4419H144.065L144.093 75.8136H144.336V72.1644H144.051V73.0436L144.061 73.5547C143.815 73.3296 143.586 73.2009 143.286 73.2009C142.7 73.2009 142.163 73.7191 142.163 74.5412C142.163 75.3954 142.585 75.8779 143.225 75.8779ZM143.268 75.6277C142.764 75.6277 142.464 75.1953 142.464 74.5412C142.464 73.9193 142.842 73.4511 143.325 73.4511C143.561 73.4511 143.793 73.5512 144.051 73.8049V75.1774C143.8 75.4705 143.536 75.6277 143.268 75.6277ZM148.994 75.8779C149.408 75.8779 149.69 75.7278 149.916 75.5777L149.805 75.3668C149.573 75.5276 149.333 75.6277 149.022 75.6277C148.432 75.6277 148.021 75.2024 148.018 74.5912H150.005C150.016 74.5269 150.016 74.4554 150.016 74.3875C150.016 73.6548 149.598 73.2009 148.929 73.2009C148.307 73.2009 147.714 73.7156 147.714 74.5412C147.714 75.3775 148.293 75.8779 148.994 75.8779ZM148.014 74.3661C148.079 73.7906 148.49 73.4368 148.929 73.4368C149.422 73.4368 149.741 73.762 149.741 74.3661H148.014ZM153.633 75.8136H153.922V74.2445C154.244 73.6798 154.598 73.469 154.984 73.469C155.177 73.469 155.263 73.4904 155.438 73.5655L155.513 73.3046C155.363 73.2188 155.198 73.2009 155.034 73.2009C154.562 73.2009 154.176 73.4797 153.919 73.8907H153.901L153.876 73.2617H153.633V75.8136ZM165.241 75.8779C165.556 75.8779 165.86 75.6706 166.067 75.4419H166.081L166.11 75.8136H166.353V72.1644H166.067V73.0436L166.078 73.5547C165.831 73.3296 165.602 73.2009 165.302 73.2009C164.716 73.2009 164.18 73.7191 164.18 74.5412C164.18 75.3954 164.602 75.8779 165.241 75.8779ZM165.284 75.6277C164.78 75.6277 164.48 75.1953 164.48 74.5412C164.48 73.9193 164.859 73.4511 165.342 73.4511C165.577 73.4511 165.81 73.5512 166.067 73.8049V75.1774C165.817 75.4705 165.552 75.6277 165.284 75.6277ZM171.01 75.8779C171.425 75.8779 171.707 75.7278 171.932 75.5777L171.821 75.3668C171.589 75.5276 171.35 75.6277 171.039 75.6277C170.449 75.6277 170.038 75.2024 170.034 74.5912H172.022C172.032 74.5269 172.032 74.4554 172.032 74.3875C172.032 73.6548 171.614 73.2009 170.946 73.2009C170.324 73.2009 169.731 73.7156 169.731 74.5412C169.731 75.3775 170.31 75.8779 171.01 75.8779ZM170.031 74.3661C170.095 73.7906 170.506 73.4368 170.946 73.4368C171.439 73.4368 171.757 73.762 171.757 74.3661H170.031ZM182.419 75.8779C182.669 75.8779 182.833 75.8029 183.041 75.7171L182.958 75.4919C182.769 75.5884 182.622 75.6313 182.472 75.6313C182.147 75.6313 181.968 75.4454 181.968 75.0451V72.1644H180.807V72.411H181.679V75.0201C181.679 75.6027 181.943 75.8779 182.419 75.8779ZM187.144 75.8779C187.497 75.8779 187.858 75.667 188.134 75.4383H188.148L188.173 75.8136H188.412V74.2017C188.412 73.6298 188.126 73.2009 187.476 73.2009C187.051 73.2009 186.7 73.4189 186.525 73.569L186.647 73.7871C186.822 73.6298 187.094 73.4511 187.433 73.4511C187.951 73.4511 188.119 73.8156 188.123 74.2052C186.836 74.3267 186.318 74.5948 186.318 75.1774C186.318 75.642 186.708 75.8779 187.144 75.8779ZM187.208 75.6384C186.901 75.6384 186.6 75.4955 186.6 75.1559C186.6 74.7664 186.968 74.5269 188.123 74.4161V75.1953C187.808 75.4883 187.501 75.6384 187.208 75.6384ZM198.52 72.5897C198.681 72.5897 198.817 72.4646 198.817 72.3002C198.817 72.1179 198.681 72 198.52 72C198.359 72 198.227 72.1179 198.227 72.3002C198.227 72.4646 198.359 72.5897 198.52 72.5897ZM197.455 75.8136H199.707V75.567H198.72V73.2617H197.455V73.5047H198.434V75.567H197.455V75.8136ZM202.888 75.8136H203.181V74.0015C203.506 73.6298 203.724 73.4547 204.046 73.4547C204.496 73.4547 204.682 73.7191 204.682 74.2624V75.8136H204.971V74.2195C204.971 73.5404 204.7 73.2009 204.113 73.2009C203.735 73.2009 203.449 73.4261 203.181 73.7406H203.159L203.131 73.2617H202.888V75.8136ZM209.864 75.8779C210.111 75.8779 210.393 75.8064 210.615 75.7171L210.54 75.5026C210.361 75.5813 210.164 75.6277 209.918 75.6277C209.41 75.6277 209.267 75.3454 209.267 74.8629V73.5047H210.518V73.2617H209.267V72.2788L208.989 72.5111V73.2617H208.274V73.5047H208.978V74.8521C208.978 75.4633 209.189 75.8779 209.864 75.8779ZM215.043 75.8779C215.458 75.8779 215.74 75.7278 215.965 75.5777L215.854 75.3668C215.622 75.5276 215.383 75.6277 215.072 75.6277C214.482 75.6277 214.071 75.2024 214.067 74.5912H216.055C216.065 74.5269 216.065 74.4554 216.065 74.3875C216.065 73.6548 215.647 73.2009 214.979 73.2009C214.357 73.2009 213.764 73.7156 213.764 74.5412C213.764 75.3775 214.343 75.8779 215.043 75.8779ZM214.064 74.3661C214.128 73.7906 214.539 73.4368 214.979 73.4368C215.472 73.4368 215.79 73.762 215.79 74.3661H214.064ZM220.948 75.8779C221.198 75.8779 221.362 75.8029 221.569 75.7171L221.487 75.4919C221.298 75.5884 221.151 75.6313 221.001 75.6313C220.676 75.6313 220.497 75.4454 220.497 75.0451V72.1644H219.336V72.411H220.208V75.0201C220.208 75.6027 220.472 75.8779 220.948 75.8779ZM226.041 72.5897C226.201 72.5897 226.337 72.4646 226.337 72.3002C226.337 72.1179 226.201 72 226.041 72C225.88 72 225.748 72.1179 225.748 72.3002C225.748 72.4646 225.88 72.5897 226.041 72.5897ZM224.976 75.8136H227.227V75.567H226.241V73.2617H224.976V73.5047H225.955V75.567H224.976V75.8136ZM231.327 76.968C231.995 76.968 232.403 76.5713 232.403 75.8136V73.2617H232.167L232.134 73.5512H232.127C231.902 73.3403 231.645 73.2009 231.355 73.2009C230.755 73.2009 230.229 73.7013 230.229 74.5055C230.229 75.3382 230.655 75.8029 231.28 75.8029C231.606 75.8029 231.92 75.6063 232.12 75.3811L232.117 75.7814C232.109 76.5284 231.827 76.7285 231.327 76.7285C231.066 76.7285 230.78 76.6535 230.526 76.2818L230.344 76.439C230.669 76.8644 230.994 76.968 231.327 76.968ZM231.334 75.5562C230.83 75.5562 230.53 75.1381 230.53 74.5019C230.53 73.9014 230.916 73.4511 231.384 73.4511C231.627 73.4511 231.859 73.5512 232.117 73.8049V75.1166C231.859 75.3954 231.595 75.5562 231.334 75.5562ZM237.06 75.8779C237.474 75.8779 237.757 75.7278 237.982 75.5777L237.871 75.3668C237.639 75.5276 237.399 75.6277 237.088 75.6277C236.498 75.6277 236.087 75.2024 236.084 74.5912H238.071C238.082 74.5269 238.082 74.4554 238.082 74.3875C238.082 73.6548 237.664 73.2009 236.995 73.2009C236.373 73.2009 235.78 73.7156 235.78 74.5412C235.78 75.3775 236.359 75.8779 237.06 75.8779ZM236.08 74.3661C236.145 73.7906 236.556 73.4368 236.995 73.4368C237.488 73.4368 237.807 73.762 237.807 74.3661H236.08ZM241.416 75.8136H241.71V74.0015C242.035 73.6298 242.253 73.4547 242.574 73.4547C243.025 73.4547 243.211 73.7191 243.211 74.2624V75.8136H243.5V74.2195C243.5 73.5404 243.229 73.2009 242.642 73.2009C242.264 73.2009 241.978 73.4261 241.71 73.7406H241.688L241.659 73.2617H241.416V75.8136ZM248.154 75.8779C248.522 75.8779 248.843 75.7171 249.097 75.4669L248.965 75.2775C248.743 75.4776 248.482 75.6313 248.168 75.6313C247.553 75.6313 247.142 75.1917 247.142 74.5412C247.142 73.8907 247.564 73.4439 248.172 73.4439C248.454 73.4439 248.679 73.5762 248.883 73.7799L249.04 73.5869C248.84 73.3796 248.565 73.2009 248.168 73.2009C247.442 73.2009 246.842 73.687 246.842 74.5412C246.842 75.3883 247.403 75.8779 248.154 75.8779ZM253.561 72.5897C253.722 72.5897 253.858 72.4646 253.858 72.3002C253.858 72.1179 253.722 72 253.561 72C253.4 72 253.268 72.1179 253.268 72.3002C253.268 72.4646 253.4 72.5897 253.561 72.5897ZM252.496 75.8136H254.748V75.567H253.761V73.2617H252.496V73.5047H253.475V75.567H252.496V75.8136ZM258.697 75.8779C259.051 75.8779 259.412 75.667 259.687 75.4383H259.702L259.727 75.8136H259.966V74.2017C259.966 73.6298 259.68 73.2009 259.03 73.2009C258.604 73.2009 258.254 73.4189 258.079 73.569L258.2 73.7871C258.376 73.6298 258.647 73.4511 258.987 73.4511C259.505 73.4511 259.673 73.8156 259.677 74.2052C258.39 74.3267 257.872 74.5948 257.872 75.1774C257.872 75.642 258.261 75.8779 258.697 75.8779ZM258.762 75.6384C258.454 75.6384 258.154 75.4955 258.154 75.1559C258.154 74.7664 258.522 74.5269 259.677 74.4161V75.1953C259.362 75.4883 259.055 75.6384 258.762 75.6384ZM269.706 75.8779C270.059 75.8779 270.42 75.667 270.696 75.4383H270.71L270.735 75.8136H270.974V74.2017C270.974 73.6298 270.688 73.2009 270.038 73.2009C269.613 73.2009 269.262 73.4189 269.087 73.569L269.209 73.7871C269.384 73.6298 269.655 73.4511 269.995 73.4511C270.513 73.4511 270.681 73.8156 270.685 74.2052C269.398 74.3267 268.88 74.5948 268.88 75.1774C268.88 75.642 269.269 75.8779 269.706 75.8779ZM269.77 75.6384C269.462 75.6384 269.162 75.4955 269.162 75.1559C269.162 74.7664 269.53 74.5269 270.685 74.4161V75.1953C270.37 75.4883 270.063 75.6384 269.77 75.6384ZM274.724 75.8136H275.013V74.2445C275.335 73.6798 275.689 73.469 276.075 73.469C276.268 73.469 276.353 73.4904 276.528 73.5655L276.604 73.3046C276.453 73.2188 276.289 73.2009 276.125 73.2009C275.653 73.2009 275.267 73.4797 275.009 73.8907H274.992L274.967 73.2617H274.724V75.8136ZM281.418 75.8779C281.664 75.8779 281.947 75.8064 282.168 75.7171L282.093 75.5026C281.915 75.5813 281.718 75.6277 281.471 75.6277C280.964 75.6277 280.821 75.3454 280.821 74.8629V73.5047H282.072V73.2617H280.821V72.2788L280.542 72.5111V73.2617H279.827V73.5047H280.531V74.8521C280.531 75.4633 280.742 75.8779 281.418 75.8779ZM286.586 72.5897C286.747 72.5897 286.883 72.4646 286.883 72.3002C286.883 72.1179 286.747 72 286.586 72C286.425 72 286.293 72.1179 286.293 72.3002C286.293 72.4646 286.425 72.5897 286.586 72.5897ZM285.521 75.8136H287.773V75.567H286.786V73.2617H285.521V73.5047H286.5V75.567H285.521V75.8136ZM291.715 75.8136H291.997V73.5047H293.08V73.2617H291.997V73.1151C291.997 72.6541 292.187 72.3503 292.666 72.3503C292.887 72.3503 293.03 72.3681 293.252 72.4861L293.327 72.2609C293.091 72.143 292.873 72.1036 292.648 72.1036C292.015 72.1036 291.715 72.4897 291.715 73.1294V73.2617L291.004 73.2903V73.5047H291.715V75.8136ZM297.594 72.5897C297.755 72.5897 297.891 72.4646 297.891 72.3002C297.891 72.1179 297.755 72 297.594 72C297.433 72 297.301 72.1179 297.301 72.3002C297.301 72.4646 297.433 72.5897 297.594 72.5897ZM296.529 75.8136H298.781V75.567H297.794V73.2617H296.529V73.5047H297.509V75.567H296.529V75.8136ZM303.195 75.8779C303.563 75.8779 303.885 75.7171 304.138 75.4669L304.006 75.2775C303.785 75.4776 303.524 75.6313 303.209 75.6313C302.594 75.6313 302.183 75.1917 302.183 74.5412C302.183 73.8907 302.605 73.4439 303.213 73.4439C303.495 73.4439 303.72 73.5762 303.924 73.7799L304.081 73.5869C303.881 73.3796 303.606 73.2009 303.209 73.2009C302.484 73.2009 301.883 73.687 301.883 74.5412C301.883 75.3883 302.444 75.8779 303.195 75.8779ZM308.603 72.5897C308.763 72.5897 308.899 72.4646 308.899 72.3002C308.899 72.1179 308.763 72 308.603 72C308.442 72 308.309 72.1179 308.309 72.3002C308.309 72.4646 308.442 72.5897 308.603 72.5897ZM307.537 75.8136H309.789V75.567H308.803V73.2617H307.537V73.5047H308.517V75.567H307.537V75.8136ZM313.739 75.8779C314.092 75.8779 314.453 75.667 314.729 75.4383H314.743L314.768 75.8136H315.007V74.2017C315.007 73.6298 314.721 73.2009 314.071 73.2009C313.646 73.2009 313.295 73.4189 313.12 73.569L313.242 73.7871C313.417 73.6298 313.689 73.4511 314.028 73.4511C314.546 73.4511 314.714 73.8156 314.718 74.2052C313.431 74.3267 312.913 74.5948 312.913 75.1774C312.913 75.642 313.302 75.8779 313.739 75.8779ZM313.803 75.6384C313.495 75.6384 313.195 75.4955 313.195 75.1559C313.195 74.7664 313.563 74.5269 314.718 74.4161V75.1953C314.403 75.4883 314.096 75.6384 313.803 75.6384ZM320.022 75.8779C320.272 75.8779 320.436 75.8029 320.644 75.7171L320.562 75.4919C320.372 75.5884 320.226 75.6313 320.075 75.6313C319.75 75.6313 319.571 75.4454 319.571 75.0451V72.1644H318.41V72.411H319.282V75.0201C319.282 75.6027 319.546 75.8779 320.022 75.8779ZM330.63 75.8779C331.044 75.8779 331.327 75.7278 331.552 75.5777L331.441 75.3668C331.209 75.5276 330.969 75.6277 330.658 75.6277C330.069 75.6277 329.658 75.2024 329.654 74.5912H331.641C331.652 74.5269 331.652 74.4554 331.652 74.3875C331.652 73.6548 331.234 73.2009 330.565 73.2009C329.944 73.2009 329.35 73.7156 329.35 74.5412C329.35 75.3775 329.929 75.8779 330.63 75.8779ZM329.65 74.3661C329.715 73.7906 330.126 73.4368 330.565 73.4368C331.059 73.4368 331.377 73.762 331.377 74.3661H329.65ZM334.987 75.8136H335.28V74.0015C335.605 73.6298 335.823 73.4547 336.145 73.4547C336.595 73.4547 336.781 73.7191 336.781 74.2624V75.8136H337.07V74.2195C337.07 73.5404 336.799 73.2009 336.213 73.2009C335.834 73.2009 335.548 73.4261 335.28 73.7406H335.258L335.23 73.2617H334.987V75.8136ZM347.142 75.8779C347.557 75.8779 347.839 75.7278 348.064 75.5777L347.954 75.3668C347.721 75.5276 347.482 75.6277 347.171 75.6277C346.581 75.6277 346.17 75.2024 346.166 74.5912H348.154C348.164 74.5269 348.164 74.4554 348.164 74.3875C348.164 73.6548 347.746 73.2009 347.078 73.2009C346.456 73.2009 345.863 73.7156 345.863 74.5412C345.863 75.3775 346.442 75.8779 347.142 75.8779ZM346.163 74.3661C346.227 73.7906 346.638 73.4368 347.078 73.4368C347.571 73.4368 347.889 73.762 347.889 74.3661H346.163ZM353.047 75.8779C353.297 75.8779 353.461 75.8029 353.669 75.7171L353.586 75.4919C353.397 75.5884 353.25 75.6313 353.1 75.6313C352.775 75.6313 352.596 75.4454 352.596 75.0451V72.1644H351.435V72.411H352.307V75.0201C352.307 75.6027 352.571 75.8779 353.047 75.8779ZM363.276 75.8779C363.63 75.8779 363.991 75.667 364.266 75.4383H364.28L364.305 75.8136H364.545V74.2017C364.545 73.6298 364.259 73.2009 363.608 73.2009C363.183 73.2009 362.833 73.4189 362.657 73.569L362.779 73.7871C362.954 73.6298 363.226 73.4511 363.565 73.4511C364.083 73.4511 364.251 73.8156 364.255 74.2052C362.968 74.3267 362.45 74.5948 362.45 75.1774C362.45 75.642 362.84 75.8779 363.276 75.8779ZM363.34 75.6384C363.033 75.6384 362.732 75.4955 362.732 75.1559C362.732 74.7664 363.101 74.5269 364.255 74.4161V75.1953C363.94 75.4883 363.633 75.6384 363.34 75.6384ZM368.294 75.8136H368.583V74.2445C368.905 73.6798 369.259 73.469 369.645 73.469C369.838 73.469 369.924 73.4904 370.099 73.5655L370.174 73.3046C370.024 73.2188 369.859 73.2009 369.695 73.2009C369.223 73.2009 368.837 73.4797 368.58 73.8907H368.562L368.537 73.2617H368.294V75.8136ZM374.577 75.8779C375.167 75.8779 375.689 75.3668 375.689 74.4947C375.689 73.7049 375.342 73.2009 374.674 73.2009C374.373 73.2009 374.041 73.3689 373.798 73.6298L373.809 73.0937V72.1644H373.516V75.8136H373.759L373.784 75.5276H373.791C374.034 75.7385 374.341 75.8779 374.577 75.8779ZM374.552 75.6277C374.359 75.6277 374.066 75.5205 373.809 75.2667V73.8943C374.091 73.5941 374.384 73.4511 374.616 73.4511C375.167 73.4511 375.388 73.8907 375.388 74.5019C375.388 75.1702 375.035 75.6277 374.552 75.6277ZM380.156 72.5897C380.317 72.5897 380.453 72.4646 380.453 72.3002C380.453 72.1179 380.317 72 380.156 72C379.995 72 379.863 72.1179 379.863 72.3002C379.863 72.4646 379.995 72.5897 380.156 72.5897ZM379.091 75.8136H381.343V75.567H380.356V73.2617H379.091V73.5047H380.07V75.567H379.091V75.8136ZM385.996 75.8779C386.243 75.8779 386.525 75.8064 386.747 75.7171L386.672 75.5026C386.493 75.5813 386.297 75.6277 386.05 75.6277C385.542 75.6277 385.399 75.3454 385.399 74.8629V73.5047H386.65V73.2617H385.399V72.2788L385.121 72.5111V73.2617H384.406V73.5047H385.11V74.8521C385.11 75.4633 385.321 75.8779 385.996 75.8779ZM390.31 75.8136H390.6V74.2445C390.921 73.6798 391.275 73.469 391.661 73.469C391.854 73.469 391.94 73.4904 392.115 73.5655L392.19 73.3046C392.04 73.2188 391.876 73.2009 391.711 73.2009C391.24 73.2009 390.854 73.4797 390.596 73.8907H390.578L390.553 73.2617H390.31V75.8136ZM396.3 75.8779C396.654 75.8779 397.015 75.667 397.291 75.4383H397.305L397.33 75.8136H397.569V74.2017C397.569 73.6298 397.283 73.2009 396.633 73.2009C396.208 73.2009 395.857 73.4189 395.682 73.569L395.804 73.7871C395.979 73.6298 396.25 73.4511 396.59 73.4511C397.108 73.4511 397.276 73.8156 397.28 74.2052C395.993 74.3267 395.475 74.5948 395.475 75.1774C395.475 75.642 395.864 75.8779 396.3 75.8779ZM396.365 75.6384C396.057 75.6384 395.757 75.4955 395.757 75.1559C395.757 74.7664 396.125 74.5269 397.28 74.4161V75.1953C396.965 75.4883 396.658 75.6384 396.365 75.6384ZM402.28 72.6183C402.437 72.6183 402.573 72.4932 402.573 72.3288C402.573 72.1501 402.437 72.0286 402.28 72.0286C402.119 72.0286 401.983 72.1501 401.983 72.3288C401.983 72.4932 402.119 72.6183 402.28 72.6183ZM401.504 76.8965C402.244 76.8965 402.473 76.4927 402.473 75.8565V73.2617H401.004V73.5047H402.183V75.8958C402.183 76.4891 402.044 76.6535 401.512 76.6535C401.311 76.6535 401.104 76.5892 400.936 76.507L400.832 76.7285C401.018 76.8286 401.261 76.8965 401.504 76.8965ZM407.688 75.8779C408.102 75.8779 408.385 75.7278 408.61 75.5777L408.499 75.3668C408.267 75.5276 408.027 75.6277 407.716 75.6277C407.126 75.6277 406.715 75.2024 406.712 74.5912H408.699C408.71 74.5269 408.71 74.4554 408.71 74.3875C408.71 73.6548 408.292 73.2009 407.623 73.2009C407.001 73.2009 406.408 73.7156 406.408 74.5412C406.408 75.3775 406.987 75.8779 407.688 75.8779ZM406.708 74.3661C406.773 73.7906 407.184 73.4368 407.623 73.4368C408.116 73.4368 408.435 73.762 408.435 74.3661H406.708ZM412.856 74.5555H413.242L413.263 72.4611H412.838L412.856 74.5555ZM413.042 75.8708C413.213 75.8708 413.356 75.7421 413.356 75.5276C413.356 75.3132 413.213 75.1917 413.042 75.1917C412.87 75.1917 412.727 75.3132 412.727 75.5276C412.727 75.7421 412.87 75.8708 413.042 75.8708Z" fill="url(#paint4_linear_118_1172)"/>
<defs>
<linearGradient id="paint0_linear_118_1172" x1="102.682" y1="-0.792764" x2="34469.4" y2="16024.7" gradientUnits="userSpaceOnUse">
<stop stop-color="#FF6600"/>
<stop offset="1" stop-color="#FFCC00"/>
</linearGradient>
<linearGradient id="paint1_linear_118_1172" x1="0" y1="0" x2="8156.77" y2="3803.56" gradientUnits="userSpaceOnUse">
<stop stop-color="#FF6600"/>
<stop offset="1" stop-color="#FFCC00"/>
</linearGradient>
<linearGradient id="paint2_linear_118_1172" x1="7.66028" y1="21.0464" x2="5293.76" y2="2485.99" gradientUnits="userSpaceOnUse">
<stop stop-color="#FF6600"/>
<stop offset="1" stop-color="#FFCC00"/>
</linearGradient>
<linearGradient id="paint3_linear_118_1172" x1="15.1327" y1="41.577" x2="2500.91" y2="1200.71" gradientUnits="userSpaceOnUse">
<stop stop-color="#FF6600"/>
<stop offset="1" stop-color="#FFCC00"/>
</linearGradient>
<linearGradient id="paint4_linear_118_1172" x1="109.419" y1="72.3973" x2="27602.8" y2="12892.8" gradientUnits="userSpaceOnUse">
<stop stop-color="#FF6600"/>
<stop offset="1" stop-color="#FFCC00"/>
</linearGradient>
</defs>
</svg>
