<svg width="217" height="217" viewBox="0 0 217 217" fill="none" xmlns="http://www.w3.org/2000/svg">
<path d="M108.096 216.193L81.0723 175.656H94.5843V148.632H121.608V175.656H135.12L108.096 216.193Z" fill="white"/>
<path d="M202.681 13.512V121.608H13.512V13.512H202.681ZM216.193 0H0V135.12H216.193V0Z" fill="white"/>
<path d="M108.097 27.0239C130.486 27.0239 148.633 45.1706 148.633 67.5601C148.633 89.9495 130.486 108.096 108.097 108.096H175.657V94.5842H189.169V40.536H175.657V27.0239H108.097Z" fill="white"/>
<path d="M67.5606 67.5601C67.5606 45.1706 85.7072 27.0239 108.097 27.0239H40.5365V40.536H27.0244V94.5842H40.5365V108.096H108.097C85.7072 108.096 67.5606 89.9495 67.5606 67.5601Z" fill="white"/>
</svg>
