<svg width="217" height="217" viewBox="0 0 217 217" fill="none" xmlns="http://www.w3.org/2000/svg">
<path d="M148.63 211.87C114.573 211.87 86.7245 184.806 85.4409 151.066H60.8016C59.4572 151.066 58.3695 149.978 58.3695 148.634V60.8055C58.3695 59.461 59.4572 58.3733 60.8016 58.3733H94.5818C95.2303 58.3733 95.8451 58.63 96.2978 59.0827C96.7572 59.5421 97.0139 60.1569 97.0139 60.8055V112.117C101.203 106.165 106.425 100.963 112.418 96.8083V6.75053C112.418 5.40608 113.505 4.31836 114.85 4.31836H148.63C149.279 4.31836 149.9 4.57509 150.353 5.02774C150.805 5.49391 151.062 6.11546 151.062 6.75728L151.055 85.4447C184.802 86.7216 211.866 114.577 211.866 148.634C211.866 183.502 183.498 211.87 148.63 211.87ZM148.63 90.2617C137.016 90.2617 125.808 93.6668 116.201 100.119C107.959 105.578 101.236 113.131 96.7505 121.975C92.5009 130.143 90.2579 139.358 90.2579 148.634C90.2579 180.819 116.444 207.006 148.63 207.006C180.816 207.006 207.002 180.819 207.002 148.634C207.002 116.448 180.816 90.2617 148.63 90.2617ZM63.2338 146.202H85.4409C85.7922 137.182 88.0892 128.285 92.1496 120.292V63.2376H63.2338V146.202ZM117.282 9.18945L117.275 93.7276C117.85 93.4033 118.424 93.079 119.012 92.7682C123.167 90.5522 127.544 88.8227 132.071 87.5931C136.658 86.35 141.388 85.6271 146.191 85.4447L146.198 9.18945H117.282ZM151.062 182.414H146.198V171.334H128.362V166.47H158.764C163.014 166.47 166.466 163.017 166.466 158.768C166.466 154.518 163.014 151.066 158.764 151.066H138.489C131.564 151.066 125.93 145.425 125.93 138.5C125.93 131.575 131.564 125.934 138.489 125.934H146.198V114.854H151.069V125.934H168.898V130.805H138.489C134.246 130.805 130.794 134.257 130.794 138.506C130.794 142.756 134.246 146.208 138.489 146.208H158.764C165.689 146.208 171.33 151.85 171.33 158.775C171.33 165.699 165.689 171.341 158.764 171.341H151.062V182.414ZM40.5336 151.066H6.75346C5.40901 151.066 4.32129 149.978 4.32129 148.634V101.342C4.32129 99.9972 5.40901 98.9094 6.75346 98.9094H40.5336C41.878 98.9094 42.9657 99.9972 42.9657 101.342V148.634C42.9657 149.978 41.878 151.066 40.5336 151.066ZM9.18563 146.202H38.1014V103.774H9.18563V146.202Z" fill="white"/>
</svg>
