<svg width="217" height="217" viewBox="0 0 217 217" fill="none" xmlns="http://www.w3.org/2000/svg">
<path d="M108.096 0L135.12 40.5361H121.608V67.5602H94.5843V40.5361H81.0723L108.096 0Z" fill="white"/>
<path d="M202.681 94.5843V202.681H13.512V94.5843H202.681ZM216.193 81.0723H0V216.193H216.193V81.0723Z" fill="white"/>
<path d="M108.097 108.096C130.486 108.096 148.633 126.243 148.633 148.632C148.633 171.022 130.486 189.168 108.097 189.168H175.657V175.656H189.169V121.608H175.657V108.096H108.097Z" fill="white"/>
<path d="M67.5606 148.632C67.5606 126.243 85.7072 108.096 108.097 108.096H40.5365V121.608H27.0244V175.656H40.5365V189.168H108.097C85.7072 189.168 67.5606 171.022 67.5606 148.632Z" fill="white"/>
</svg>
