<svg data-v-423bf9ae="" xmlns="http://www.w3.org/2000/svg" viewBox="0 0 490 90" class="iconLeftSlogan"><!----><!----><defs data-v-423bf9ae=""><linearGradient data-v-423bf9ae="" gradientTransform="rotate(25)" id="546ab1d4-9817-41c2-b854-9d5a589a63ed" x1="0%" y1="0%" x2="100%" y2="0%"><stop data-v-423bf9ae="" offset="0%" style="stop-color: rgb(255, 102, 0); stop-opacity: 1;"></stop><stop data-v-423bf9ae="" offset="100%" style="stop-color: rgb(255, 204, 0); stop-opacity: 1;"></stop></linearGradient></defs><g data-v-423bf9ae="" id="6f488881-14a8-4a1b-b9da-022baac8eaf4" fill="url(#546ab1d4-9817-41c2-b854-9d5a589a63ed)" transform="matrix(6.036217558641619,0,0,6.036217558641619,108.128773790487,-16.901409591622986)"><path d="M4.01 12.71Q3.12 12.71 2.33 12.39Q1.54 12.07 1.00 11.43Q0.46 10.79 0.31 9.88L0.31 9.88L2.03 9.44Q2.12 10.30 2.67 10.74Q3.22 11.18 4.03 11.18L4.03 11.18Q4.53 11.18 4.89 11.02Q5.26 10.86 5.44 10.58Q5.63 10.29 5.63 9.95L5.63 9.95Q5.63 9.53 5.37 9.24Q5.11 8.94 4.73 8.75Q4.35 8.56 3.68 8.29L3.68 8.29Q2.80 7.94 2.26 7.65Q1.72 7.35 1.34 6.82Q0.95 6.28 0.95 5.47L0.95 5.47Q0.95 4.64 1.36 4.04Q1.76 3.43 2.45 3.12Q3.14 2.80 3.96 2.80L3.96 2.80Q4.89 2.80 5.66 3.22Q6.43 3.64 6.90 4.50L6.90 4.50L5.46 5.38Q5.21 4.89 4.80 4.62Q4.39 4.35 3.90 4.35L3.90 4.35Q3.56 4.35 3.28 4.48Q3.01 4.61 2.85 4.84Q2.69 5.08 2.69 5.38L2.69 5.38Q2.69 5.75 2.93 6.01Q3.17 6.27 3.53 6.45Q3.90 6.62 4.53 6.87L4.53 6.87Q5.43 7.22 6.00 7.53Q6.56 7.83 6.96 8.39Q7.36 8.94 7.36 9.79L7.36 9.79Q7.36 10.68 6.91 11.34Q6.47 12.00 5.70 12.36Q4.94 12.71 4.01 12.71L4.01 12.71ZM11.57 12.74Q10.54 12.74 9.74 12.26Q8.94 11.78 8.50 10.96Q8.07 10.14 8.07 9.17L8.07 9.17Q8.07 8.21 8.50 7.40Q8.94 6.59 9.74 6.11Q10.54 5.63 11.57 5.63L11.57 5.63Q12.59 5.63 13.39 6.11Q14.19 6.59 14.63 7.40Q15.07 8.21 15.07 9.17L15.07 9.17Q15.07 10.14 14.63 10.96Q14.19 11.78 13.39 12.26Q12.59 12.74 11.57 12.74L11.57 12.74ZM11.57 11.31Q12.17 11.31 12.56 11.02Q12.96 10.73 13.15 10.24Q13.33 9.76 13.33 9.17L13.33 9.17Q13.33 8.26 12.90 7.67Q12.46 7.08 11.57 7.08L11.57 7.08Q10.96 7.08 10.57 7.36Q10.17 7.64 9.99 8.11Q9.80 8.59 9.80 9.17L9.80 9.17Q9.80 9.76 9.99 10.24Q10.17 10.73 10.57 11.02Q10.96 11.31 11.57 11.31L11.57 11.31ZM17.81 12.74Q17.14 12.74 16.76 12.41Q16.38 12.08 16.38 11.25L16.38 11.25L16.38 2.95L18.05 2.95L18.05 10.79Q18.05 11.25 18.59 11.25L18.59 11.25Q18.79 11.25 19.05 11.20L19.05 11.20L19.05 12.61Q18.35 12.74 17.81 12.74L17.81 12.74ZM22.16 12.74Q21.46 12.74 20.89 12.48Q20.33 12.22 20.01 11.71Q19.68 11.20 19.68 10.51L19.68 10.51Q19.68 9.46 20.42 9.00Q21.15 8.53 22.40 8.53L22.40 8.53L24.18 8.53Q24.18 7.87 23.83 7.48Q23.48 7.09 22.83 7.09L22.83 7.09Q22.29 7.09 21.88 7.36Q21.47 7.63 21.23 8.05L21.23 8.05L19.95 7.13Q20.47 6.41 21.17 6.02Q21.86 5.63 22.82 5.63L22.82 5.63Q23.73 5.63 24.40 5.99Q25.07 6.34 25.42 6.99Q25.77 7.63 25.77 8.46L25.77 8.46L25.77 12.61L24.40 12.61L24.29 11.63Q23.87 12.24 23.34 12.49Q22.82 12.74 22.16 12.74L22.16 12.74ZM22.40 11.33Q22.87 11.33 23.27 11.11Q23.67 10.89 23.92 10.52Q24.17 10.16 24.18 9.73L24.18 9.73L22.50 9.73Q21.96 9.73 21.67 9.97Q21.39 10.21 21.39 10.56L21.39 10.56Q21.39 10.91 21.66 11.12Q21.92 11.33 22.40 11.33L22.40 11.33ZM27.55 12.61L27.55 5.78L29.18 5.78L29.18 6.92Q29.39 6.32 29.90 5.98Q30.41 5.63 31.01 5.63L31.01 5.63Q31.36 5.63 31.69 5.76Q32.02 5.88 32.26 6.13L32.26 6.13L31.50 7.49Q31.15 7.26 30.75 7.26L30.75 7.26Q30.34 7.26 29.98 7.52Q29.61 7.79 29.39 8.34Q29.16 8.89 29.16 9.72L29.16 9.72L29.16 12.61L27.55 12.61ZM33.12 4.48L33.12 2.95L34.86 2.95L34.86 4.48L33.12 4.48ZM33.16 12.61L33.16 5.78L34.82 5.78L34.82 12.61L33.16 12.61ZM38.86 12.74Q38.16 12.74 37.57 12.49Q36.98 12.23 36.57 11.80Q36.16 11.36 35.99 10.83L35.99 10.83L37.32 10.24Q37.50 10.72 37.83 11.04Q38.17 11.36 38.77 11.36L38.77 11.36Q39.14 11.36 39.39 11.24Q39.63 11.12 39.76 10.93Q39.88 10.74 39.88 10.55L39.88 10.55Q39.88 10.33 39.72 10.19Q39.56 10.04 39.32 9.96Q39.08 9.87 38.63 9.75L38.63 9.75Q37.95 9.58 37.52 9.39Q37.08 9.21 36.77 8.81Q36.45 8.42 36.45 7.76L36.45 7.76Q36.45 7.07 36.80 6.59Q37.15 6.11 37.72 5.87Q38.30 5.63 38.99 5.63L38.99 5.63Q39.85 5.63 40.52 6.02Q41.18 6.41 41.58 7.12L41.58 7.12L40.28 7.82Q40.07 7.44 39.75 7.19Q39.44 6.95 38.93 6.95L38.93 6.95Q38.53 6.95 38.29 7.12Q38.05 7.29 38.05 7.54L38.05 7.54Q38.05 7.73 38.20 7.86Q38.35 7.99 38.58 8.07Q38.81 8.16 39.22 8.28L39.22 8.28Q39.93 8.48 40.39 8.69Q40.84 8.89 41.18 9.32Q41.52 9.75 41.52 10.47L41.52 10.47Q41.52 11.22 41.14 11.73Q40.76 12.24 40.15 12.49Q39.54 12.74 38.86 12.74L38.86 12.74ZM43.26 12.61L43.26 2.95L46.61 2.95Q47.41 2.95 48.11 3.21Q48.82 3.47 49.26 4.05Q49.70 4.63 49.70 5.55L49.70 5.55Q49.70 6.17 49.39 6.69Q49.08 7.20 48.63 7.44L48.63 7.44Q49.06 7.61 49.42 7.98Q49.77 8.36 49.98 8.84Q50.18 9.32 50.18 9.80L50.18 9.80Q50.18 10.67 49.75 11.31Q49.31 11.94 48.59 12.27Q47.87 12.61 47.03 12.61L47.03 12.61L43.26 12.61ZM45.00 6.84L46.78 6.84Q47.37 6.84 47.74 6.57Q48.11 6.30 48.11 5.65L48.11 5.65Q48.11 5.10 47.70 4.81Q47.29 4.51 46.64 4.51L46.64 4.51L45.00 4.51L45.00 6.84ZM45.00 10.95L47.06 10.95Q47.74 10.95 48.11 10.62Q48.47 10.28 48.47 9.61L48.47 9.61Q48.47 9.26 48.29 8.97Q48.10 8.68 47.77 8.51Q47.43 8.33 46.99 8.33L46.99 8.33L45.00 8.33L45.00 10.95ZM54.65 12.74Q53.62 12.74 52.82 12.26Q52.02 11.78 51.58 10.96Q51.15 10.14 51.15 9.17L51.15 9.17Q51.15 8.21 51.58 7.40Q52.02 6.59 52.82 6.11Q53.62 5.63 54.65 5.63L54.65 5.63Q55.67 5.63 56.47 6.11Q57.27 6.59 57.71 7.40Q58.15 8.21 58.15 9.17L58.15 9.17Q58.15 10.14 57.71 10.96Q57.27 11.78 56.47 12.26Q55.67 12.74 54.65 12.74L54.65 12.74ZM54.65 11.31Q55.25 11.31 55.64 11.02Q56.04 10.73 56.23 10.24Q56.41 9.76 56.41 9.17L56.41 9.17Q56.41 8.26 55.98 7.67Q55.54 7.08 54.65 7.08L54.65 7.08Q54.04 7.08 53.65 7.36Q53.25 7.64 53.07 8.11Q52.88 8.59 52.88 9.17L52.88 9.17Q52.88 9.76 53.07 10.24Q53.25 10.73 53.65 11.02Q54.04 11.31 54.65 11.31L54.65 11.31ZM61.90 12.74Q61.23 12.74 60.75 12.50Q60.27 12.25 60.01 11.80Q59.75 11.34 59.75 10.72L59.75 10.72L59.75 7.17L58.65 7.17L58.65 5.78L59.78 5.78L59.78 4.08L61.41 2.89L61.41 5.78L63.13 5.78L63.13 7.17L61.41 7.17L61.41 10.42Q61.41 10.89 61.61 11.08Q61.82 11.27 62.18 11.27L62.18 11.27Q62.42 11.27 62.67 11.20Q62.92 11.13 63.13 11.03L63.13 11.03L63.13 12.54Q62.92 12.62 62.57 12.68Q62.23 12.74 61.90 12.74L61.90 12.74Z"></path></g><defs data-v-423bf9ae=""><linearGradient data-v-423bf9ae="" gradientTransform="rotate(25)" id="6cc95094-7e93-4897-adc8-bb2bc8477770" x1="0%" y1="0%" x2="100%" y2="0%"><stop data-v-423bf9ae="" offset="0%" style="stop-color: rgb(255, 102, 0); stop-opacity: 1;"></stop><stop data-v-423bf9ae="" offset="100%" style="stop-color: rgb(255, 204, 0); stop-opacity: 1;"></stop></linearGradient></defs><g data-v-423bf9ae="" id="282a3803-cc48-4ea7-bdaf-ad96575bc65a" transform="matrix(2.8125,0,0,2.8125,0,0)" stroke="none" fill="url(#6cc95094-7e93-4897-adc8-bb2bc8477770)"><path d="M16 1c8.271 0 15 6.729 15 15s-6.729 15-15 15S1 24.271 1 16 7.729 1 16 1m0-1C7.163 0 0 7.163 0 16s7.163 16 16 16 16-7.163 16-16S24.837 0 16 0z"></path><path d="M16 7.045L24.955 16 16 24.955 7.045 16 16 7.045m0-1.414L5.631 16 16 26.369 26.369 16 16 5.631z"></path><path d="M16 12.538L19.462 16 16 19.462 12.538 16 16 12.538m0-1.414L11.124 16 16 20.876 20.876 16 16 11.124z"></path></g><defs data-v-423bf9ae=""><linearGradient data-v-423bf9ae="" gradientTransform="rotate(25)" id="d4f61eb6-eaf2-4885-9307-5d1d8412d889" x1="0%" y1="0%" x2="100%" y2="0%"><stop data-v-423bf9ae="" offset="0%" style="stop-color: rgb(255, 102, 0); stop-opacity: 1;"></stop><stop data-v-423bf9ae="" offset="100%" style="stop-color: rgb(255, 204, 0); stop-opacity: 1;"></stop></linearGradient></defs><g data-v-423bf9ae="" id="0ca6905b-58c9-48cd-a28a-c9039fb993e1" fill="url(#d4f61eb6-eaf2-4885-9307-5d1d8412d889)" transform="matrix(0.357410981506039,0,0,0.357410981506039,108.81339942472854,58.88845305825665)"><path d="M4.20 8.76C4.68 8.76 5.08 8.41 5.08 7.83C5.08 7.21 4.68 6.86 4.20 6.86C3.72 6.86 3.32 7.21 3.32 7.83C3.32 8.41 3.72 8.76 4.20 8.76ZM3.63 16.41L4.82 16.41L4.76 10.54L3.68 10.54ZM17.12 13.78L22.81 13.78L22.81 13.06L17.96 13.06L17.96 9.25L21.92 9.25L21.92 8.53L17.96 8.53L17.96 5.24L22.67 5.24L22.67 4.54L17.12 4.54ZM36.54 13.96C37.24 13.96 37.70 13.75 38.28 13.51L38.05 12.88C37.52 13.15 37.11 13.27 36.69 13.27C35.78 13.27 35.28 12.75 35.28 11.63L35.28 3.57L32.03 3.57L32.03 4.26L34.47 4.26L34.47 11.56C34.47 13.19 35.21 13.96 36.54 13.96ZM63.01 16.65L63.83 16.65L63.83 14.39L63.81 12.96C64.47 13.58 65.34 13.96 65.97 13.96C67.63 13.96 69.09 12.53 69.09 10.11C69.09 7.88 68.14 6.47 66.26 6.47C65.39 6.47 64.47 6.96 63.81 7.63L63.77 7.63L63.69 6.64L63.01 6.64ZM65.87 13.26C65.37 13.26 64.55 12.96 63.83 12.25L63.83 8.41C64.62 7.57 65.44 7.17 66.09 7.17C67.63 7.17 68.25 8.40 68.25 10.11C68.25 11.98 67.26 13.26 65.87 13.26ZM81.20 13.96C82.98 13.96 84.49 12.59 84.49 10.22C84.49 7.83 82.98 6.47 81.20 6.47C79.42 6.47 77.91 7.83 77.91 10.22C77.91 12.59 79.42 13.96 81.20 13.96ZM81.20 13.27C79.77 13.27 78.75 12.04 78.75 10.22C78.75 8.40 79.77 7.15 81.20 7.15C82.63 7.15 83.65 8.40 83.65 10.22C83.65 12.04 82.63 13.27 81.20 13.27ZM96.28 13.96C97.16 13.96 98.01 13.38 98.59 12.74L98.63 12.74L98.71 13.78L99.39 13.78L99.39 3.57L98.59 3.57L98.59 6.03L98.62 7.46C97.93 6.83 97.29 6.47 96.45 6.47C94.81 6.47 93.31 7.92 93.31 10.22C93.31 12.61 94.49 13.96 96.28 13.96ZM96.40 13.26C94.99 13.26 94.15 12.05 94.15 10.22C94.15 8.48 95.21 7.17 96.56 7.17C97.22 7.17 97.87 7.45 98.59 8.16L98.59 12.00C97.89 12.82 97.15 13.26 96.40 13.26ZM112.42 13.96C113.58 13.96 114.37 13.54 115.00 13.12L114.69 12.53C114.04 12.98 113.37 13.26 112.50 13.26C110.85 13.26 109.70 12.07 109.69 10.36L115.25 10.36C115.28 10.18 115.28 9.98 115.28 9.79C115.28 7.74 114.11 6.47 112.24 6.47C110.50 6.47 108.84 7.91 108.84 10.22C108.84 12.56 110.46 13.96 112.42 13.96ZM109.68 9.73C109.86 8.12 111.01 7.13 112.24 7.13C113.62 7.13 114.51 8.04 114.51 9.73ZM125.40 13.78L126.21 13.78L126.21 9.39C127.11 7.81 128.10 7.22 129.18 7.22C129.72 7.22 129.96 7.28 130.45 7.49L130.66 6.76C130.24 6.52 129.78 6.47 129.32 6.47C128.00 6.47 126.92 7.25 126.20 8.40L126.15 8.40L126.08 6.64L125.40 6.64ZM157.88 13.96C158.76 13.96 159.61 13.38 160.19 12.74L160.23 12.74L160.31 13.78L160.99 13.78L160.99 3.57L160.19 3.57L160.19 6.03L160.22 7.46C159.53 6.83 158.89 6.47 158.05 6.47C156.41 6.47 154.91 7.92 154.91 10.22C154.91 12.61 156.09 13.96 157.88 13.96ZM158.00 13.26C156.59 13.26 155.75 12.05 155.75 10.22C155.75 8.48 156.81 7.17 158.16 7.17C158.82 7.17 159.47 7.45 160.19 8.16L160.19 12.00C159.49 12.82 158.75 13.26 158.00 13.26ZM174.02 13.96C175.18 13.96 175.97 13.54 176.60 13.12L176.29 12.53C175.64 12.98 174.97 13.26 174.10 13.26C172.45 13.26 171.30 12.07 171.29 10.36L176.85 10.36C176.88 10.18 176.88 9.98 176.88 9.79C176.88 7.74 175.71 6.47 173.84 6.47C172.10 6.47 170.44 7.91 170.44 10.22C170.44 12.56 172.06 13.96 174.02 13.96ZM171.28 9.73C171.46 8.12 172.61 7.13 173.84 7.13C175.22 7.13 176.11 8.04 176.11 9.73ZM205.94 13.96C206.64 13.96 207.10 13.75 207.68 13.51L207.45 12.88C206.92 13.15 206.51 13.27 206.09 13.27C205.18 13.27 204.68 12.75 204.68 11.63L204.68 3.57L201.43 3.57L201.43 4.26L203.87 4.26L203.87 11.56C203.87 13.19 204.61 13.96 205.94 13.96ZM219.16 13.96C220.15 13.96 221.16 13.37 221.93 12.73L221.97 12.73L222.04 13.78L222.71 13.78L222.71 9.27C222.71 7.67 221.91 6.47 220.09 6.47C218.90 6.47 217.92 7.08 217.43 7.50L217.77 8.11C218.26 7.67 219.02 7.17 219.97 7.17C221.42 7.17 221.89 8.19 221.90 9.28C218.30 9.62 216.85 10.37 216.85 12.00C216.85 13.30 217.94 13.96 219.16 13.96ZM219.34 13.29C218.48 13.29 217.64 12.89 217.64 11.94C217.64 10.85 218.67 10.18 221.90 9.87L221.90 12.05C221.02 12.87 220.16 13.29 219.34 13.29ZM250.99 4.76C251.44 4.76 251.82 4.41 251.82 3.95C251.82 3.44 251.44 3.11 250.99 3.11C250.54 3.11 250.17 3.44 250.17 3.95C250.17 4.41 250.54 4.76 250.99 4.76ZM248.01 13.78L254.31 13.78L254.31 13.09L251.55 13.09L251.55 6.64L248.01 6.64L248.01 7.32L250.75 7.32L250.75 13.09L248.01 13.09ZM263.21 13.78L264.03 13.78L264.03 8.71C264.94 7.67 265.55 7.18 266.45 7.18C267.71 7.18 268.23 7.92 268.23 9.44L268.23 13.78L269.04 13.78L269.04 9.32C269.04 7.42 268.28 6.47 266.64 6.47C265.58 6.47 264.78 7.10 264.03 7.98L263.97 7.98L263.89 6.64L263.21 6.64ZM282.73 13.96C283.42 13.96 284.21 13.76 284.83 13.51L284.62 12.91C284.12 13.13 283.57 13.26 282.88 13.26C281.46 13.26 281.06 12.47 281.06 11.12L281.06 7.32L284.56 7.32L284.56 6.64L281.06 6.64L281.06 3.89L280.28 4.54L280.28 6.64L278.28 6.64L278.28 7.32L280.25 7.32L280.25 11.09C280.25 12.80 280.84 13.96 282.73 13.96ZM297.22 13.96C298.38 13.96 299.17 13.54 299.80 13.12L299.49 12.53C298.84 12.98 298.17 13.26 297.30 13.26C295.65 13.26 294.50 12.07 294.49 10.36L300.05 10.36C300.08 10.18 300.08 9.98 300.08 9.79C300.08 7.74 298.91 6.47 297.04 6.47C295.30 6.47 293.64 7.91 293.64 10.22C293.64 12.56 295.26 13.96 297.22 13.96ZM294.48 9.73C294.66 8.12 295.81 7.13 297.04 7.13C298.42 7.13 299.31 8.04 299.31 9.73ZM313.74 13.96C314.44 13.96 314.90 13.75 315.48 13.51L315.25 12.88C314.72 13.15 314.31 13.27 313.89 13.27C312.98 13.27 312.48 12.75 312.48 11.63L312.48 3.57L309.23 3.57L309.23 4.26L311.67 4.26L311.67 11.56C311.67 13.19 312.41 13.96 313.74 13.96ZM327.99 4.76C328.44 4.76 328.82 4.41 328.82 3.95C328.82 3.44 328.44 3.11 327.99 3.11C327.54 3.11 327.17 3.44 327.17 3.95C327.17 4.41 327.54 4.76 327.99 4.76ZM325.01 13.78L331.31 13.78L331.31 13.09L328.55 13.09L328.55 6.64L325.01 6.64L325.01 7.32L327.75 7.32L327.75 13.09L325.01 13.09ZM342.78 17.01C344.65 17.01 345.79 15.90 345.79 13.78L345.79 6.64L345.13 6.64L345.04 7.45L345.02 7.45C344.39 6.86 343.67 6.47 342.86 6.47C341.18 6.47 339.71 7.87 339.71 10.12C339.71 12.45 340.90 13.75 342.65 13.75C343.56 13.75 344.44 13.20 345.00 12.57L344.99 13.69C344.97 15.78 344.18 16.34 342.78 16.34C342.05 16.34 341.25 16.13 340.54 15.09L340.03 15.53C340.94 16.72 341.85 17.01 342.78 17.01ZM342.80 13.06C341.39 13.06 340.55 11.89 340.55 10.11C340.55 8.43 341.63 7.17 342.94 7.17C343.62 7.17 344.27 7.45 344.99 8.16L344.99 11.83C344.27 12.61 343.53 13.06 342.80 13.06ZM358.82 13.96C359.98 13.96 360.77 13.54 361.40 13.12L361.09 12.53C360.44 12.98 359.77 13.26 358.90 13.26C357.25 13.26 356.10 12.07 356.09 10.36L361.65 10.36C361.68 10.18 361.68 9.98 361.68 9.79C361.68 7.74 360.51 6.47 358.64 6.47C356.90 6.47 355.24 7.91 355.24 10.22C355.24 12.56 356.86 13.96 358.82 13.96ZM356.08 9.73C356.26 8.12 357.41 7.13 358.64 7.13C360.02 7.13 360.91 8.04 360.91 9.73ZM371.01 13.78L371.83 13.78L371.83 8.71C372.74 7.67 373.35 7.18 374.25 7.18C375.51 7.18 376.03 7.92 376.03 9.44L376.03 13.78L376.84 13.78L376.84 9.32C376.84 7.42 376.08 6.47 374.44 6.47C373.38 6.47 372.58 7.10 371.83 7.98L371.77 7.98L371.69 6.64L371.01 6.64ZM389.86 13.96C390.89 13.96 391.79 13.51 392.50 12.81L392.13 12.28C391.51 12.84 390.78 13.27 389.90 13.27C388.18 13.27 387.03 12.04 387.03 10.22C387.03 8.40 388.21 7.15 389.91 7.15C390.70 7.15 391.33 7.52 391.90 8.09L392.34 7.55C391.78 6.97 391.01 6.47 389.90 6.47C387.87 6.47 386.19 7.83 386.19 10.22C386.19 12.59 387.76 13.96 389.86 13.96ZM404.99 4.76C405.44 4.76 405.82 4.41 405.82 3.95C405.82 3.44 405.44 3.11 404.99 3.11C404.54 3.11 404.17 3.44 404.17 3.95C404.17 4.41 404.54 4.76 404.99 4.76ZM402.01 13.78L408.31 13.78L408.31 13.09L405.55 13.09L405.55 6.64L402.01 6.64L402.01 7.32L404.75 7.32L404.75 13.09L402.01 13.09ZM419.36 13.96C420.35 13.96 421.36 13.37 422.13 12.73L422.17 12.73L422.24 13.78L422.91 13.78L422.91 9.27C422.91 7.67 422.11 6.47 420.29 6.47C419.10 6.47 418.12 7.08 417.63 7.50L417.97 8.11C418.46 7.67 419.22 7.17 420.17 7.17C421.62 7.17 422.09 8.19 422.10 9.28C418.50 9.62 417.05 10.37 417.05 12.00C417.05 13.30 418.14 13.96 419.36 13.96ZM419.54 13.29C418.68 13.29 417.84 12.89 417.84 11.94C417.84 10.85 418.87 10.18 422.10 9.87L422.10 12.05C421.22 12.87 420.36 13.29 419.54 13.29ZM450.16 13.96C451.15 13.96 452.16 13.37 452.93 12.73L452.97 12.73L453.04 13.78L453.71 13.78L453.71 9.27C453.71 7.67 452.91 6.47 451.09 6.47C449.90 6.47 448.92 7.08 448.43 7.50L448.77 8.11C449.26 7.67 450.02 7.17 450.97 7.17C452.42 7.17 452.89 8.19 452.90 9.28C449.30 9.62 447.85 10.37 447.85 12.00C447.85 13.30 448.94 13.96 450.16 13.96ZM450.34 13.29C449.48 13.29 448.64 12.89 448.64 11.94C448.64 10.85 449.67 10.18 452.90 9.87L452.90 12.05C452.02 12.87 451.16 13.29 450.34 13.29ZM464.20 13.78L465.01 13.78L465.01 9.39C465.91 7.81 466.90 7.22 467.98 7.22C468.52 7.22 468.76 7.28 469.25 7.49L469.46 6.76C469.04 6.52 468.58 6.47 468.12 6.47C466.80 6.47 465.72 7.25 465.00 8.40L464.95 8.40L464.88 6.64L464.20 6.64ZM482.93 13.96C483.62 13.96 484.41 13.76 485.03 13.51L484.82 12.91C484.32 13.13 483.77 13.26 483.08 13.26C481.66 13.26 481.26 12.47 481.26 11.12L481.26 7.32L484.76 7.32L484.76 6.64L481.26 6.64L481.26 3.89L480.48 4.54L480.48 6.64L478.48 6.64L478.48 7.32L480.45 7.32L480.45 11.09C480.45 12.80 481.04 13.96 482.93 13.96ZM497.39 4.76C497.84 4.76 498.22 4.41 498.22 3.95C498.22 3.44 497.84 3.11 497.39 3.11C496.94 3.11 496.57 3.44 496.57 3.95C496.57 4.41 496.94 4.76 497.39 4.76ZM494.41 13.78L500.71 13.78L500.71 13.09L497.95 13.09L497.95 6.64L494.41 6.64L494.41 7.32L497.15 7.32L497.15 13.09L494.41 13.09ZM511.74 13.78L512.53 13.78L512.53 7.32L515.56 7.32L515.56 6.64L512.53 6.64L512.53 6.23C512.53 4.94 513.06 4.09 514.40 4.09C515.02 4.09 515.42 4.14 516.04 4.47L516.25 3.84C515.59 3.51 514.98 3.40 514.35 3.40C512.58 3.40 511.74 4.48 511.74 6.27L511.74 6.64L509.75 6.72L509.75 7.32L511.74 7.32ZM528.19 4.76C528.64 4.76 529.02 4.41 529.02 3.95C529.02 3.44 528.64 3.11 528.19 3.11C527.74 3.11 527.37 3.44 527.37 3.95C527.37 4.41 527.74 4.76 528.19 4.76ZM525.21 13.78L531.51 13.78L531.51 13.09L528.75 13.09L528.75 6.64L525.21 6.64L525.21 7.32L527.95 7.32L527.95 13.09L525.21 13.09ZM543.86 13.96C544.89 13.96 545.79 13.51 546.50 12.81L546.13 12.28C545.51 12.84 544.78 13.27 543.90 13.27C542.18 13.27 541.03 12.04 541.03 10.22C541.03 8.40 542.21 7.15 543.91 7.15C544.70 7.15 545.33 7.52 545.90 8.09L546.34 7.55C545.78 6.97 545.01 6.47 543.90 6.47C541.87 6.47 540.19 7.83 540.19 10.22C540.19 12.59 541.76 13.96 543.86 13.96ZM558.99 4.76C559.44 4.76 559.82 4.41 559.82 3.95C559.82 3.44 559.44 3.11 558.99 3.11C558.54 3.11 558.17 3.44 558.17 3.95C558.17 4.41 558.54 4.76 558.99 4.76ZM556.01 13.78L562.31 13.78L562.31 13.09L559.55 13.09L559.55 6.64L556.01 6.64L556.01 7.32L558.75 7.32L558.75 13.09L556.01 13.09ZM573.36 13.96C574.35 13.96 575.36 13.37 576.13 12.73L576.17 12.73L576.24 13.78L576.91 13.78L576.91 9.27C576.91 7.67 576.11 6.47 574.29 6.47C573.10 6.47 572.12 7.08 571.63 7.50L571.97 8.11C572.46 7.67 573.22 7.17 574.17 7.17C575.62 7.17 576.09 8.19 576.10 9.28C572.50 9.62 571.05 10.37 571.05 12.00C571.05 13.30 572.14 13.96 573.36 13.96ZM573.54 13.29C572.68 13.29 571.84 12.89 571.84 11.94C571.84 10.85 572.87 10.18 576.10 9.87L576.10 12.05C575.22 12.87 574.36 13.29 573.54 13.29ZM590.94 13.96C591.64 13.96 592.10 13.75 592.68 13.51L592.45 12.88C591.92 13.15 591.51 13.27 591.09 13.27C590.18 13.27 589.68 12.75 589.68 11.63L589.68 3.57L586.43 3.57L586.43 4.26L588.87 4.26L588.87 11.56C588.87 13.19 589.61 13.96 590.94 13.96ZM620.62 13.96C621.78 13.96 622.57 13.54 623.20 13.12L622.89 12.53C622.24 12.98 621.57 13.26 620.70 13.26C619.05 13.26 617.90 12.07 617.89 10.36L623.45 10.36C623.48 10.18 623.48 9.98 623.48 9.79C623.48 7.74 622.31 6.47 620.44 6.47C618.70 6.47 617.04 7.91 617.04 10.22C617.04 12.56 618.66 13.96 620.62 13.96ZM617.88 9.73C618.06 8.12 619.21 7.13 620.44 7.13C621.82 7.13 622.71 8.04 622.71 9.73ZM632.81 13.78L633.63 13.78L633.63 8.71C634.54 7.67 635.15 7.18 636.05 7.18C637.31 7.18 637.83 7.92 637.83 9.44L637.83 13.78L638.64 13.78L638.64 9.32C638.64 7.42 637.88 6.47 636.24 6.47C635.18 6.47 634.38 7.10 633.63 7.98L633.57 7.98L633.49 6.64L632.81 6.64ZM666.82 13.96C667.98 13.96 668.77 13.54 669.40 13.12L669.09 12.53C668.44 12.98 667.77 13.26 666.90 13.26C665.25 13.26 664.10 12.07 664.09 10.36L669.65 10.36C669.68 10.18 669.68 9.98 669.68 9.79C669.68 7.74 668.51 6.47 666.64 6.47C664.90 6.47 663.24 7.91 663.24 10.22C663.24 12.56 664.86 13.96 666.82 13.96ZM664.08 9.73C664.26 8.12 665.41 7.13 666.64 7.13C668.02 7.13 668.91 8.04 668.91 9.73ZM683.34 13.96C684.04 13.96 684.50 13.75 685.08 13.51L684.85 12.88C684.32 13.15 683.91 13.27 683.49 13.27C682.58 13.27 682.08 12.75 682.08 11.63L682.08 3.57L678.83 3.57L678.83 4.26L681.27 4.26L681.27 11.56C681.27 13.19 682.01 13.96 683.34 13.96ZM711.96 13.96C712.95 13.96 713.96 13.37 714.73 12.73L714.77 12.73L714.84 13.78L715.51 13.78L715.51 9.27C715.51 7.67 714.71 6.47 712.89 6.47C711.70 6.47 710.72 7.08 710.23 7.50L710.57 8.11C711.06 7.67 711.82 7.17 712.77 7.17C714.22 7.17 714.69 8.19 714.70 9.28C711.10 9.62 709.65 10.37 709.65 12.00C709.65 13.30 710.74 13.96 711.96 13.96ZM712.14 13.29C711.28 13.29 710.44 12.89 710.44 11.94C710.44 10.85 711.47 10.18 714.70 9.87L714.70 12.05C713.82 12.87 712.96 13.29 712.14 13.29ZM726.00 13.78L726.81 13.78L726.81 9.39C727.71 7.81 728.70 7.22 729.78 7.22C730.32 7.22 730.56 7.28 731.05 7.49L731.26 6.76C730.84 6.52 730.38 6.47 729.92 6.47C728.60 6.47 727.52 7.25 726.80 8.40L726.75 8.40L726.68 6.64L726.00 6.64ZM743.58 13.96C745.23 13.96 746.69 12.53 746.69 10.09C746.69 7.88 745.72 6.47 743.85 6.47C743.01 6.47 742.08 6.94 741.40 7.67L741.43 6.17L741.43 3.57L740.61 3.57L740.61 13.78L741.29 13.78L741.36 12.98L741.38 12.98C742.06 13.57 742.92 13.96 743.58 13.96ZM743.51 13.26C742.97 13.26 742.15 12.96 741.43 12.25L741.43 8.41C742.22 7.57 743.04 7.17 743.69 7.17C745.23 7.17 745.85 8.40 745.85 10.11C745.85 11.98 744.86 13.26 743.51 13.26ZM759.19 4.76C759.64 4.76 760.02 4.41 760.02 3.95C760.02 3.44 759.64 3.11 759.19 3.11C758.74 3.11 758.37 3.44 758.37 3.95C758.37 4.41 758.74 4.76 759.19 4.76ZM756.21 13.78L762.51 13.78L762.51 13.09L759.75 13.09L759.75 6.64L756.21 6.64L756.21 7.32L758.95 7.32L758.95 13.09L756.21 13.09ZM775.53 13.96C776.22 13.96 777.01 13.76 777.63 13.51L777.42 12.91C776.92 13.13 776.37 13.26 775.68 13.26C774.26 13.26 773.86 12.47 773.86 11.12L773.86 7.32L777.36 7.32L777.36 6.64L773.86 6.64L773.86 3.89L773.08 4.54L773.08 6.64L771.08 6.64L771.08 7.32L773.05 7.32L773.05 11.09C773.05 12.80 773.64 13.96 775.53 13.96ZM787.60 13.78L788.41 13.78L788.41 9.39C789.31 7.81 790.30 7.22 791.38 7.22C791.92 7.22 792.16 7.28 792.65 7.49L792.86 6.76C792.44 6.52 791.98 6.47 791.52 6.47C790.20 6.47 789.12 7.25 788.40 8.40L788.35 8.40L788.28 6.64L787.60 6.64ZM804.36 13.96C805.35 13.96 806.36 13.37 807.13 12.73L807.17 12.73L807.24 13.78L807.91 13.78L807.91 9.27C807.91 7.67 807.11 6.47 805.29 6.47C804.10 6.47 803.12 7.08 802.63 7.50L802.97 8.11C803.46 7.67 804.22 7.17 805.17 7.17C806.62 7.17 807.09 8.19 807.10 9.28C803.50 9.62 802.05 10.37 802.05 12.00C802.05 13.30 803.14 13.96 804.36 13.96ZM804.54 13.29C803.68 13.29 802.84 12.89 802.84 11.94C802.84 10.85 803.87 10.18 807.10 9.87L807.10 12.05C806.22 12.87 805.36 13.29 804.54 13.29ZM821.09 4.84C821.53 4.84 821.91 4.49 821.91 4.03C821.91 3.53 821.53 3.19 821.09 3.19C820.64 3.19 820.26 3.53 820.26 4.03C820.26 4.49 820.64 4.84 821.09 4.84ZM818.92 16.81C820.99 16.81 821.63 15.68 821.63 13.90L821.63 6.64L817.52 6.64L817.52 7.32L820.82 7.32L820.82 14.01C820.82 15.67 820.43 16.13 818.94 16.13C818.38 16.13 817.80 15.95 817.33 15.72L817.04 16.34C817.56 16.62 818.24 16.81 818.92 16.81ZM836.22 13.96C837.38 13.96 838.17 13.54 838.80 13.12L838.49 12.53C837.84 12.98 837.17 13.26 836.30 13.26C834.65 13.26 833.50 12.07 833.49 10.36L839.05 10.36C839.08 10.18 839.08 9.98 839.08 9.79C839.08 7.74 837.91 6.47 836.04 6.47C834.30 6.47 832.64 7.91 832.64 10.22C832.64 12.56 834.26 13.96 836.22 13.96ZM833.48 9.73C833.66 8.12 834.81 7.13 836.04 7.13C837.42 7.13 838.31 8.04 838.31 9.73ZM850.68 10.26L851.76 10.26L851.82 4.40L850.63 4.40ZM851.20 13.94C851.68 13.94 852.08 13.58 852.08 12.98C852.08 12.38 851.68 12.04 851.20 12.04C850.72 12.04 850.32 12.38 850.32 12.98C850.32 13.58 850.72 13.94 851.20 13.94Z"></path></g></svg>